<svg xmlns="http://www.w3.org/2000/svg" viewBox="0 0 512 512" width="512" height="512">
  <defs>
    <linearGradient id="bg" x1="0" y1="0" x2="0" y2="1">
      <stop offset="0" stop-color="#ffffff"/>
      <stop offset="1" stop-color="#eef1f8"/>
    </linearGradient>
    <clipPath id="rc"><rect width="512" height="512" rx="112"/></clipPath>
  </defs>

  <rect width="512" height="512" rx="112" fill="url(#bg)"/>

  <!-- Freeform-style colourful shapes, blended like the Freeform app icon -->
  <g clip-path="url(#rc)" style="mix-blend-mode:multiply">
    <circle cx="174" cy="184" r="97" fill="#2563eb"/>
    <rect x="248" y="128" width="154" height="154" rx="23" fill="#f59e0b" transform="rotate(13.2 325 205)"/>
    <circle cx="205" cy="335" r="77" fill="#7c3aed"/>
    <line x1="287" y1="297" x2="381" y2="361" stroke="#10b981" stroke-width="74" stroke-linecap="round"/>
    <path d="M87 271 C105 271 125 299 143 299 C162 299 181 271 200 271 C219 271 237 243 256 243 C275 243 293 271 312 271 C331 271 350 299 369 299 C387 299 406 271 425 271"
      fill="none" stroke="#f43f5e" stroke-width="22" stroke-linecap="round"/>
  </g>
</svg>
